<svg width="206" height="56" viewBox="0 0 206 56" fill="none" xmlns="http://www.w3.org/2000/svg">
  <path
    d="M71.8697 39.2V30.0272C71.8697 27.2048 73.3778 26.3984 74.8524 26.3984C76.4945 26.3984 77.567 27.4064 77.567 29.4896V39.2H82.661V30.0272C82.661 27.1712 84.1356 26.3648 85.6102 26.3648C87.2524 26.3648 88.3583 27.3728 88.3583 29.4896V39.2H93.3854V28.2128C93.3854 24.3824 91.3746 21.8288 87.0513 21.8288C84.6383 21.8288 82.661 23.0048 81.7897 24.8192C80.7843 23.0048 79.0416 21.8288 76.2599 21.8288C74.4167 21.8288 72.7075 22.6688 71.7021 24.0128L71.501 22.4H66.675V39.2H71.8697Z"
    fill="white" />
  <path
    d="M96.328 47.264C99.0091 47.8688 104.371 48.8768 106.717 42.8624L114.693 22.4H109.197L105.243 33.3872L101.255 22.4H95.6243L102.796 40.1408L102.629 40.5776C101.858 42.6944 101.389 42.9296 99.2437 42.9296H96.3951L96.328 47.264Z"
    fill="white" />
  <path d="M115.73 19.5104H123.505V39.2H128.934V19.5104H136.676V14.336H115.73V19.5104Z" fill="white" />
  <path
    d="M145.325 39.2V30.4304H149.414L153.067 39.2H159.166L154.876 29.5232C157.49 28.28 158.931 25.7936 158.931 22.4C158.931 17.192 155.848 14.3696 149.481 14.336H139.896V39.2H145.325ZM145.325 19.1408H149.481C152.262 19.1408 153.201 20.6528 153.201 22.4C153.201 24.1808 152.229 25.7264 149.447 25.7264H145.325V19.1408Z"
    fill="white" />
  <path
    d="M168.398 14.336H162.969V39.3008H168.398V34.4288L171.917 29.8256L177.313 39.2H183.815L175.637 24.9536L183.747 14.336H177.011L168.398 25.8608V14.336Z"
    fill="white" />
  <path
    d="M192.159 39.2V30.4304H196.248L199.901 39.2H206L201.71 29.5232C204.324 28.28 205.765 25.7936 205.765 22.4C205.765 17.192 202.682 14.3696 196.315 14.336H186.73V39.2H192.159ZM192.159 19.1408H196.315C199.096 19.1408 200.035 20.6528 200.035 22.4C200.035 24.1808 199.063 25.7264 196.281 25.7264H192.159V19.1408Z"
    fill="white" />
  <path
    d="M38.471 47.5973C38.4751 47.5891 38.4791 47.581 38.4832 47.5728C39.0224 46.4838 39.513 45.3233 39.9521 44.1022C43.1178 43.7107 45.5508 42.4566 46.7865 40.3107C48.0223 38.1649 47.889 35.4254 46.6444 32.481C47.4796 31.4892 48.2367 30.4829 48.9078 29.4702L48.9229 29.4475C51.0603 33.4768 51.9707 38.0629 49.7038 41.9994C47.4369 45.9359 43.0202 47.4384 38.471 47.5973Z"
    fill="white" />
  <path
    d="M36.8032 47.5973C36.924 47.3703 37.0413 47.1417 37.1551 46.9119C37.5755 46.0627 37.9661 45.1655 38.3247 44.2258C37.2031 44.2612 36.0098 44.203 34.7617 44.0523C34.2679 45.2113 33.7215 46.2765 33.1301 47.2326C34.1211 47.3911 35.0914 47.5006 36.0352 47.5602C36.2906 47.5763 36.5467 47.5887 36.8032 47.5973Z"
    fill="white" />
  <path
    d="M14.2317 47.5976C14.4846 47.589 14.7372 47.5766 14.989 47.5608C15.9328 47.5012 16.9031 47.3917 17.8941 47.2332C17.3027 46.2771 16.7563 45.2119 16.2625 44.0529C15.0184 44.2031 13.8289 44.2614 12.7105 44.2267C13.069 45.1661 13.4594 46.063 13.8797 46.9119C13.9935 47.1418 14.1109 47.3705 14.2317 47.5976Z"
    fill="white" />
  <path
    d="M10.6683 36.5946C11.949 37.6608 13.3232 38.6889 14.7785 39.6645C14.3687 38.1286 14.0372 36.4947 13.795 34.7847C12.439 33.7195 11.1934 32.6147 10.0716 31.4909C10.1867 33.2423 10.3876 34.9495 10.6683 36.5946Z"
    fill="white" />
  <path
    d="M10.0723 24.4971C10.1877 22.7461 10.389 21.0392 10.6699 19.3945C11.9471 18.332 13.3173 17.3073 14.7679 16.3348C14.358 17.8707 14.0266 19.5046 13.7844 21.2146C12.433 22.2763 11.1912 23.3772 10.0723 24.4971Z"
    fill="white" />
  <path
    d="M12.7101 11.773C13.0688 10.8333 13.4593 9.93601 13.8797 9.08683C13.9935 8.85701 14.1108 8.62839 14.2316 8.40138C14.4881 8.41 14.7442 8.42246 14.9996 8.43857C15.9434 8.49811 16.9137 8.60767 17.9047 8.7661C17.3133 9.72227 16.7669 10.7874 16.2731 11.9464C15.025 11.7957 13.8317 11.7375 12.7101 11.773Z"
    fill="white" />
  <path
    d="M15.5013 19.9297C15.8061 18.2172 16.2043 16.6026 16.6812 15.1114C17.0259 14.9013 17.3746 14.6941 17.727 14.4902C22.3452 11.8169 27.1145 9.97326 31.5445 9.05603C31.9786 9.70941 32.3984 10.4404 32.7992 11.25C32.9471 11.5487 33.0912 11.8561 33.2314 12.1717C32.2533 12.342 31.2475 12.5653 30.2213 12.8412L30.2243 12.8427C28.6927 13.2548 27.1156 13.7839 25.5174 14.4286L25.5129 14.4268C23.4964 15.2399 21.4462 16.237 19.4112 17.4149C18.0374 18.2101 16.7313 19.0526 15.5013 19.9297Z"
    fill="white" />
  <path
    d="M15.4999 36.0611C15.8044 37.7737 16.2023 39.3885 16.6789 40.88C17.0278 41.0929 17.3808 41.3027 17.7376 41.5092C18.0943 41.7157 18.452 41.9173 18.8104 42.1138C20.337 41.7819 21.9309 41.3199 23.5625 40.728C22.1854 40.0971 20.8001 39.3822 19.4218 38.5844C18.0435 37.7866 16.7334 36.9413 15.4999 36.0611Z"
    fill="white" />
  <path
    d="M31.5551 46.9433C31.9892 46.2899 32.409 45.5589 32.8098 44.7494C32.9577 44.4506 33.1019 44.1432 33.242 43.8276C32.9808 43.7821 32.7177 43.7329 32.4528 43.6799C30.874 44.5253 29.2809 45.2782 27.6912 45.934C28.9992 46.3444 30.291 46.6816 31.5551 46.9433Z"
    fill="white" />
  <path
    d="M36.2584 39.6566C36.668 38.1204 36.9991 36.4862 37.241 34.776C38.5924 33.7136 39.8341 32.6121 40.9526 31.4915C40.8375 33.2429 40.6366 34.9501 40.3559 36.5952C39.079 37.6583 37.709 38.6835 36.2584 39.6566Z"
    fill="white" />
  <path
    d="M37.2398 21.214C36.9976 19.504 36.6662 17.8701 36.2563 16.3342C37.7116 17.3098 39.0858 18.3379 40.3665 19.4041C40.6472 21.0492 40.8481 22.7565 40.9632 24.5078C39.8414 23.384 38.5958 22.2793 37.2398 21.214Z"
    fill="white" />
  <path
    d="M42.0977 35.0688C42.3257 33.3601 42.4715 31.5999 42.5303 29.806C47.0363 24.656 48.8681 19.3216 46.7759 15.6886C45.5416 13.5452 43.113 12.2916 39.9528 11.8985C39.5136 10.6767 39.0227 9.51553 38.4832 8.42589C38.4793 8.41808 38.4754 8.41028 38.4715 8.40247C43.0168 8.56334 47.4281 10.0667 49.6932 14C52.235 18.4139 50.7821 23.6445 48.0839 27.9911L48.089 27.9994C47.9533 28.2178 47.8145 28.4339 47.6729 28.6476C47.1496 29.4373 46.5698 30.225 45.9374 31.0062L45.9334 30.9987C44.8129 32.3839 43.527 33.7489 42.0977 35.0688Z"
    fill="white" />
  <path
    d="M12.5638 8.40147C8.01457 8.56028 3.59794 10.0628 1.33103 13.9994C-0.935869 17.9359 -0.0254683 22.5219 2.11195 26.5512L2.12699 26.5285C2.7981 25.5158 3.55516 24.5096 4.39042 23.5177C3.14575 20.5733 3.01252 17.8339 4.24827 15.688C5.48402 13.5421 7.91697 12.288 11.0827 11.8965C11.5218 10.6754 12.0125 9.51493 12.5517 8.42589C12.5557 8.41775 12.5597 8.40961 12.5638 8.40147Z"
    fill="white" />
  <path
    d="M42.0963 20.9195C43.1047 21.85 44.0419 22.803 44.9 23.7697C44.5527 24.4733 44.1311 25.2033 43.6322 25.956C43.4481 26.2339 43.2547 26.5127 43.0521 26.7922C42.8823 26.5882 42.7082 26.3843 42.5299 26.1808C42.4708 24.3874 42.3246 22.6276 42.0963 20.9195Z"
    fill="white" />
  <path
    d="M34.356 15.1187C34.8326 16.6102 35.2304 18.225 35.5349 19.9376C34.3014 19.0575 32.9913 18.2121 31.613 17.4143C30.2347 16.6165 28.8494 15.9016 27.4724 15.2707C29.1039 14.6788 30.6978 14.2168 32.2244 13.8849C32.5828 14.0815 32.9405 14.283 33.2972 14.4895C33.654 14.6961 34.007 14.9058 34.356 15.1187Z"
    fill="white" />
  <path
    d="M19.4797 9.05543C20.7438 9.31716 22.0356 9.65434 23.3436 10.0647C21.7539 10.7206 20.1608 11.4735 18.5821 12.3189C18.3171 12.2658 18.054 12.2166 17.7928 12.1711C17.933 11.8555 18.0771 11.5481 18.225 11.2494C18.6258 10.4398 19.0456 9.7088 19.4797 9.05543Z"
    fill="white" />
  <path
    d="M34.7615 11.9458C36.0058 11.796 37.1956 11.7382 38.3141 11.7736C37.9554 10.8339 37.5649 9.93661 37.1445 9.08743C37.0307 8.85761 36.9134 8.629 36.7926 8.40199C36.5361 8.41061 36.28 8.42307 36.0246 8.43918C35.084 8.49852 34.1171 8.60754 33.1295 8.76512C33.721 9.72136 34.2675 10.7866 34.7615 11.9458Z"
    fill="white" />
  <path
    d="M19.4788 46.9419C19.045 46.2889 18.6255 45.5583 18.225 44.7494C18.0769 44.4502 17.9326 44.1425 17.7923 43.8264C22.0699 43.0803 26.877 41.3203 31.6024 38.585C32.9807 37.7872 34.2908 36.9419 35.5243 36.0617C35.2198 37.7743 34.8219 39.3891 34.3453 40.8806C33.9964 41.0935 33.6434 41.3033 33.2866 41.5098C32.2694 42.0986 31.2449 42.6472 30.2182 43.1544L30.2243 43.1561C28.6539 43.9318 27.0787 44.611 25.5174 45.1899L25.5129 45.1882C23.4635 45.9483 21.438 46.5357 19.4788 46.9419Z"
    fill="white" />
  <path
    d="M8.50494 29.818C8.56404 31.6114 8.71026 33.3711 8.93855 35.0793C7.93008 34.1488 6.99295 33.1958 6.1348 32.229C6.48215 31.5255 6.9037 30.7955 7.40258 30.0427C7.58669 29.7649 7.78013 29.486 7.9827 29.2066C8.15255 29.4106 8.32666 29.6144 8.50494 29.818Z"
    fill="white" />
  <path
    d="M7.02368 27.9926C7.47601 27.3883 7.96689 26.7836 8.49433 26.1814C8.55343 24.388 8.69965 22.6282 8.92794 20.9201C6.68989 22.9851 4.80319 25.1609 3.35132 27.3517C0.389862 31.8205 -1.35088 37.3612 1.32043 42C3.58733 45.9365 8.00396 47.4391 12.5532 47.5979L12.5411 47.5734C12.0018 46.4844 11.5112 45.324 11.0721 44.1028C7.90637 43.7113 5.47341 42.4573 4.23766 40.3114C2.79657 37.8089 3.21722 34.4992 5.0912 30.9986L5.09739 31.0062C5.62762 30.0146 6.2745 29.0077 7.02875 27.9994L7.02368 27.9926Z"
    fill="white" />
  <path fill-rule="evenodd" clip-rule="evenodd"
        d="M37.1445 46.9125C34.7651 51.7182 30.8494 56 25.5068 56C20.1642 56 16.2485 51.7182 13.8691 46.9125C11.3862 41.8978 9.94711 35.2066 9.94711 28C9.94711 20.7934 11.3862 14.1022 13.8691 9.08746C16.2485 4.28177 20.1642 0 25.5068 0C30.8494 0 34.7651 4.28174 37.1445 9.08743C39.6274 14.1021 41.0665 20.7934 41.0665 28C41.0665 35.2066 39.6274 41.8978 37.1445 46.9125ZM25.5068 52.6228C32.2398 52.6228 37.6979 41.5988 37.6979 28C37.6979 14.4012 32.2398 3.37722 25.5068 3.37722C18.7738 3.37722 13.3156 14.4012 13.3156 28C13.3156 41.5988 18.7738 52.6228 25.5068 52.6228Z"
        fill="white" />
</svg>
