<svg width="269" height="202" viewBox="0 0 269 202" fill="none" xmlns="http://www.w3.org/2000/svg">
  <g clip-path="url(#clip0_8607_22596)">
    <path
      d="M1 9C1 4.58173 4.58172 1 9 1H259.667C264.085 1 267.667 4.58172 267.667 9V193C267.667 197.418 264.085 201 259.667 201H8.99999C4.58171 201 1 197.418 1 193V9Z"
      fill="white" />
    <rect x="134.333" y="1" width="133.333" height="200" fill="#F4F4F5" />
    <path d="M174.333 86.9994H200.333C204.751 86.9994 208.333 83.4176 208.333 78.9994V65.666" stroke="#BCBEBE"
          stroke-width="4" />
    <path
      d="M134.333 174.333H173.666C178.085 174.333 181.666 170.751 181.666 166.333V134.191C181.666 129.828 185.162 126.27 189.524 126.192L211.142 125.806C215.504 125.728 219 122.17 219 117.808V116.333C219 111.914 222.581 108.333 227 108.333H233.666C238.085 108.333 241.666 104.751 241.666 100.333V74.3327C241.666 69.9144 238.085 66.3327 233.666 66.3327H187.666C183.248 66.3327 179.666 62.751 179.666 58.3327V35.666C179.666 31.2477 176.085 27.666 171.666 27.666H134.333"
      stroke="#E8E8E8" stroke-width="4" />
    <path d="M232.333 1V23.6667C232.333 28.085 235.915 31.6667 240.333 31.6667H267.666" stroke="#E8E8E8"
          stroke-width="4" />
    <path d="M215.667 201V173C215.667 168.582 219.249 165 223.667 165H267.667" stroke="#E8E8E8" stroke-width="4" />
    <path d="M157.667 202.334V174.334" stroke="#BCBEBE" stroke-width="4" />
    <path d="M268.333 140.333H227C222.582 140.333 219 136.752 219 132.333V125" stroke="#BCBEBE" stroke-width="4" />
    <g filter="url(#filter0_i_8607_22596)">
      <path fill-rule="evenodd" clip-rule="evenodd"
            d="M21 22.334C23.2091 22.334 25 20.5431 25 18.334C25 16.1248 23.2091 14.334 21 14.334C18.7909 14.334 17 16.1248 17 18.334C17 20.5431 18.7909 22.334 21 22.334Z"
            fill="#EE6A5F" />
    </g>
    <path
      d="M24.75 18.334C24.75 20.4051 23.0711 22.084 21 22.084C18.9289 22.084 17.25 20.4051 17.25 18.334C17.25 16.2629 18.9289 14.584 21 14.584C23.0711 14.584 24.75 16.2629 24.75 18.334Z"
      stroke="#CE5347" stroke-width="0.5" />
    <g filter="url(#filter1_i_8607_22596)">
      <path fill-rule="evenodd" clip-rule="evenodd"
            d="M34.333 22.334C36.5421 22.334 38.333 20.5431 38.333 18.334C38.333 16.1248 36.5421 14.334 34.333 14.334C32.1239 14.334 30.333 16.1248 30.333 18.334C30.333 20.5431 32.1239 22.334 34.333 22.334Z"
            fill="#F5BD4F" />
    </g>
    <path
      d="M38.083 18.334C38.083 20.4051 36.4041 22.084 34.333 22.084C32.2619 22.084 30.583 20.4051 30.583 18.334C30.583 16.2629 32.2619 14.584 34.333 14.584C36.4041 14.584 38.083 16.2629 38.083 18.334Z"
      stroke="#D6A243" stroke-width="0.5" />
    <g filter="url(#filter2_i_8607_22596)">
      <path fill-rule="evenodd" clip-rule="evenodd"
            d="M47.667 22.334C49.8761 22.334 51.667 20.5431 51.667 18.334C51.667 16.1248 49.8761 14.334 47.667 14.334C45.4579 14.334 43.667 16.1248 43.667 18.334C43.667 20.5431 45.4579 22.334 47.667 22.334Z"
            fill="#61C454" />
    </g>
    <path
      d="M51.417 18.334C51.417 20.4051 49.7381 22.084 47.667 22.084C45.5959 22.084 43.917 20.4051 43.917 18.334C43.917 16.2629 45.5959 14.584 47.667 14.584C49.7381 14.584 51.417 16.2629 51.417 18.334Z"
      stroke="#58A942" stroke-width="0.5" />
    <path
      d="M156.104 133.553C156.111 133.54 156.117 133.526 156.124 133.513C157.027 131.704 157.849 129.776 158.585 127.748C163.887 127.097 167.962 125.014 170.032 121.45C172.102 117.885 171.879 113.335 169.794 108.444C171.193 106.796 172.461 105.125 173.585 103.443L173.61 103.405C177.19 110.098 178.715 117.716 174.918 124.255C171.121 130.794 163.724 133.289 156.104 133.553Z"
      fill="#BCBEBE" />
    <path
      d="M153.31 133.553C153.513 133.176 153.709 132.797 153.9 132.415C154.604 131.004 155.258 129.514 155.859 127.953C153.98 128.012 151.981 127.915 149.891 127.665C149.064 129.59 148.149 131.359 147.158 132.948C148.818 133.211 150.443 133.393 152.024 133.492C152.452 133.518 152.881 133.539 153.31 133.553Z"
      fill="#BCBEBE" />
    <path
      d="M115.504 133.554C115.928 133.539 116.351 133.519 116.773 133.493C118.353 133.394 119.979 133.212 121.639 132.949C120.648 131.36 119.733 129.591 118.906 127.666C116.822 127.915 114.83 128.012 112.956 127.955C113.557 129.515 114.211 131.005 114.915 132.415C115.105 132.797 115.302 133.177 115.504 133.554Z"
      fill="#BCBEBE" />
    <path
      d="M109.536 115.277C111.681 117.048 113.983 118.756 116.42 120.376C115.734 117.825 115.179 115.111 114.773 112.271C112.502 110.501 110.415 108.666 108.536 106.799C108.729 109.708 109.066 112.544 109.536 115.277Z"
      fill="#BCBEBE" />
    <path
      d="M108.538 95.1819C108.731 92.2734 109.068 89.4381 109.539 86.7062C111.678 84.9412 113.973 83.2391 116.402 81.6237C115.716 84.175 115.161 86.889 114.755 89.7295C112.492 91.493 110.412 93.3217 108.538 95.1819Z"
      fill="#BCBEBE" />
    <path
      d="M112.956 74.0461C113.556 72.4852 114.211 70.9948 114.915 69.5842C115.105 69.2025 115.302 68.8227 115.504 68.4456C115.934 68.4599 116.363 68.4806 116.791 68.5074C118.371 68.6063 119.996 68.7883 121.656 69.0515C120.666 70.6397 119.751 72.409 118.924 74.3343C116.833 74.0839 114.834 73.9872 112.956 74.0461Z"
      fill="#BCBEBE" />
    <path
      d="M117.631 87.5951C118.141 84.7506 118.808 82.0686 119.607 79.5916C120.185 79.2425 120.768 78.8984 121.359 78.5596C129.094 74.1191 137.082 71.0566 144.502 69.5331C145.229 70.6184 145.932 71.8326 146.604 73.1774C146.852 73.6736 147.093 74.1842 147.328 74.7085C145.69 74.9914 144.005 75.3623 142.286 75.8205L142.291 75.823C139.726 76.5075 137.084 77.3865 134.407 78.4574L134.4 78.4543C131.022 79.805 127.588 81.4612 124.18 83.4179C121.879 84.7388 119.691 86.1382 117.631 87.5951Z"
      fill="#BCBEBE" />
    <path
      d="M117.628 114.391C118.138 117.235 118.805 119.918 119.603 122.395C120.188 122.749 120.779 123.097 121.376 123.44C121.974 123.783 122.573 124.118 123.173 124.445C125.73 123.893 128.4 123.126 131.133 122.143C128.826 121.095 126.506 119.907 124.197 118.582C121.889 117.257 119.695 115.853 117.628 114.391Z"
      fill="#BCBEBE" />
    <path
      d="M144.52 132.467C145.247 131.382 145.95 130.167 146.622 128.823C146.869 128.326 147.111 127.816 147.346 127.292C146.908 127.216 146.467 127.134 146.024 127.046C143.379 128.45 140.711 129.701 138.048 130.79C140.239 131.472 142.403 132.032 144.52 132.467Z"
      fill="#BCBEBE" />
    <path
      d="M152.398 120.363C153.084 117.811 153.639 115.097 154.044 112.256C156.307 110.491 158.387 108.662 160.26 106.8C160.068 109.709 159.731 112.545 159.261 115.278C157.122 117.044 154.827 118.747 152.398 120.363Z"
      fill="#BCBEBE" />
    <path
      d="M154.042 89.7285C153.636 86.888 153.081 84.174 152.394 81.6227C154.832 83.2433 157.134 84.951 159.279 86.7221C159.749 89.4547 160.085 92.2906 160.278 95.1997C158.399 93.333 156.313 91.498 154.042 89.7285Z"
      fill="#BCBEBE" />
    <path
      d="M162.178 112.742C162.56 109.904 162.804 106.98 162.903 104C170.45 95.446 173.518 86.5851 170.014 80.5503C167.947 76.99 163.879 74.9077 158.586 74.2547C157.85 72.225 157.028 70.2963 156.124 68.4863C156.118 68.4734 156.111 68.4604 156.105 68.4474C163.718 68.7147 171.106 71.2118 174.9 77.7454C179.158 85.0773 176.724 93.7657 172.205 100.986L172.213 101C171.986 101.362 171.754 101.721 171.516 102.076C170.64 103.388 169.669 104.696 168.61 105.994L168.603 105.982C166.726 108.283 164.572 110.55 162.178 112.742Z"
      fill="#BCBEBE" />
    <path
      d="M112.711 68.4458C105.091 68.7096 97.6933 71.2055 93.8964 77.7443C90.0995 84.2832 91.6243 91.901 95.2044 98.594L95.2296 98.5563C96.3537 96.8741 97.6217 95.2027 99.0207 93.5552C96.9359 88.6642 96.7128 84.1138 98.7826 80.5493C100.852 76.9847 104.927 74.9017 110.23 74.2513C110.965 72.2229 111.787 70.2953 112.69 68.4863C112.697 68.4728 112.704 68.4593 112.711 68.4458Z"
      fill="#BCBEBE" />
    <path
      d="M162.176 89.2392C163.865 90.7849 165.435 92.3678 166.872 93.9737C166.29 95.1424 165.584 96.3549 164.749 97.6054C164.44 98.0669 164.116 98.53 163.777 98.9943C163.492 98.6554 163.201 98.3168 162.902 97.9787C162.803 94.9997 162.558 92.0766 162.176 89.2392Z"
      fill="#BCBEBE" />
    <path
      d="M149.211 79.6037C150.01 82.0812 150.676 84.7636 151.186 87.6083C149.12 86.1463 146.926 84.7421 144.617 83.4168C142.308 82.0916 139.988 80.9042 137.682 79.8562C140.414 78.8729 143.084 78.1056 145.641 77.5542C146.241 77.8807 146.84 78.2155 147.438 78.5586C148.036 78.9016 148.627 79.2501 149.211 79.6037Z"
      fill="#BCBEBE" />
    <path
      d="M124.294 69.532C126.412 69.9668 128.575 70.5269 130.766 71.2085C128.104 72.298 125.435 73.5486 122.791 74.9529C122.347 74.8648 121.906 74.783 121.469 74.7075C121.704 74.1832 121.945 73.6726 122.193 73.1764C122.864 71.8316 123.567 70.6174 124.294 69.532Z"
      fill="#BCBEBE" />
    <path
      d="M149.891 74.3332C151.975 74.0844 153.968 73.9884 155.841 74.0471C155.24 72.4862 154.586 70.9958 153.882 69.5852C153.691 69.2035 153.495 68.8237 153.293 68.4466C152.863 68.461 152.434 68.4817 152.006 68.5084C150.431 68.607 148.811 68.7881 147.157 69.0498C148.148 70.6382 149.063 72.4077 149.891 74.3332Z"
      fill="#BCBEBE" />
    <path
      d="M124.293 132.465C123.566 131.38 122.864 130.166 122.193 128.823C121.945 128.326 121.703 127.815 121.468 127.29C128.633 126.05 136.684 123.127 144.599 118.583C146.908 117.258 149.102 115.854 151.168 114.392C150.658 117.236 149.992 119.919 149.194 122.396C148.609 122.75 148.018 123.098 147.42 123.441C145.716 124.42 144 125.331 142.281 126.173L142.291 126.176C139.661 127.465 137.022 128.593 134.407 129.554L134.4 129.552C130.967 130.814 127.574 131.79 124.293 132.465Z"
      fill="#BCBEBE" />
    <path
      d="M105.912 104.02C106.011 106.999 106.256 109.922 106.639 112.76C104.949 111.214 103.38 109.631 101.942 108.025C102.524 106.857 103.23 105.644 104.066 104.394C104.374 103.932 104.698 103.469 105.038 103.005C105.322 103.344 105.614 103.682 105.912 104.02Z"
      fill="#BCBEBE" />
    <path
      d="M103.431 100.988C104.189 99.9845 105.011 98.98 105.895 97.9797C105.994 95.0007 106.238 92.0776 106.621 89.2402C102.872 92.6704 99.7121 96.2846 97.2803 99.9237C92.32 107.347 89.4043 116.55 93.8786 124.256C97.6756 130.795 105.073 133.29 112.693 133.554L112.673 133.514C111.769 131.705 110.948 129.777 110.212 127.749C104.91 127.098 100.835 125.015 98.7648 121.451C96.3511 117.294 97.0557 111.796 100.194 105.981L100.205 105.994C101.093 104.347 102.176 102.674 103.44 101L103.431 100.988Z"
      fill="#BCBEBE" />
    <path fill-rule="evenodd" clip-rule="evenodd"
          d="M153.882 132.416C149.897 140.399 143.338 147.511 134.389 147.511C125.441 147.511 118.882 140.399 114.897 132.416C110.738 124.086 108.328 112.971 108.328 101.001C108.328 89.0298 110.738 77.9151 114.897 69.5853C118.882 61.6026 125.441 54.4902 134.389 54.4902C143.338 54.4902 149.897 61.6026 153.882 69.5852C158.041 77.9151 160.451 89.0298 160.451 101.001C160.451 112.971 158.041 124.086 153.882 132.416ZM134.389 141.901C145.667 141.901 154.809 123.589 154.809 101.001C154.809 78.4118 145.667 60.1001 134.389 60.1001C123.112 60.1001 113.97 78.4118 113.97 101.001C113.97 123.589 123.112 141.901 134.389 141.901Z"
          fill="#BCBEBE" />
    <path fill-rule="evenodd" clip-rule="evenodd"
          d="M134.804 54.3369C134.7 54.335 134.596 54.334 134.491 54.334C125.564 54.334 119.021 61.4703 115.045 69.4798C110.896 77.8376 108.491 88.9896 108.491 101.001C108.491 113.012 110.896 124.164 115.045 132.522C119.021 140.531 125.564 147.667 134.491 147.667C134.596 147.667 134.7 147.666 134.804 147.664V142.034C134.7 142.037 134.595 142.039 134.491 142.039C129.679 142.039 125.256 138.677 121.77 133.056H121.771C120.927 131.696 120.138 130.203 119.412 128.594C119.289 128.32 119.167 128.044 119.048 127.764L119.044 127.755C118.085 125.511 117.245 123.055 116.543 120.427L116.564 120.442C115.88 117.882 115.326 115.159 114.921 112.309L114.901 112.293C114.392 108.705 114.12 104.917 114.12 101.001C114.12 97.0609 114.396 93.2508 114.91 89.6444C115.314 86.8116 115.866 84.1044 116.547 81.5587C117.249 78.9355 118.088 76.4838 119.045 74.2428L119.062 74.2447C119.887 72.313 120.8 70.5378 121.788 68.9442L121.773 68.9417C125.258 63.3228 129.68 59.9627 134.491 59.9627C134.595 59.9627 134.7 59.9643 134.804 59.9674V54.3369ZM134.804 72.235C130.385 73.8473 125.897 75.9404 121.491 78.4842C120.902 78.8242 120.32 79.1694 119.744 79.5197C118.947 82.005 118.282 84.6961 117.772 87.5501C119.828 86.0883 122.01 84.6842 124.306 83.3588C127.706 81.3956 131.132 79.7338 134.501 78.3787L134.509 78.3817C134.607 78.3422 134.705 78.3029 134.804 78.2638V72.235ZM134.804 123.492C130.237 125.353 125.768 126.653 121.6 127.378C121.835 127.905 122.076 128.418 122.323 128.916C122.993 130.265 123.694 131.482 124.418 132.571C127.692 131.893 131.077 130.915 134.501 129.648L134.509 129.65C134.607 129.614 134.705 129.578 134.804 129.541V123.492ZM117.77 114.436C118.279 117.29 118.943 119.982 119.74 122.467C120.323 122.822 120.913 123.172 121.509 123.516C122.105 123.86 122.703 124.196 123.302 124.524C125.853 123.97 128.516 123.201 131.242 122.214C128.941 121.162 126.626 119.971 124.323 118.641C122.02 117.312 119.831 115.903 117.77 114.436ZM94.0942 77.6663C97.8821 71.1054 105.262 68.6011 112.864 68.3364L112.843 68.3771C111.942 70.1922 111.123 72.1263 110.389 74.1615C105.099 74.814 101.034 76.9041 98.9688 80.4806C96.9039 84.0571 97.1265 88.6229 99.2064 93.5302C97.8107 95.1833 96.5456 96.8603 95.4242 98.5481L95.3991 98.586C91.8276 91.8705 90.3063 84.2271 94.0942 77.6663ZM124.42 69.4264C126.532 69.8626 128.691 70.4245 130.876 71.1085C128.22 72.2016 125.558 73.4564 122.92 74.8654C122.477 74.7771 122.038 74.695 121.601 74.6192C121.835 74.0932 122.076 73.5809 122.323 73.0829C122.993 71.7337 123.695 70.5153 124.42 69.4264ZM106.806 112.799C106.425 109.953 106.18 107.02 106.082 104.031C105.784 103.691 105.493 103.352 105.209 103.012C104.87 103.477 104.547 103.942 104.24 104.405C103.406 105.66 102.702 106.876 102.121 108.049C103.555 109.66 105.121 111.249 106.806 112.799ZM103.606 100.988C104.362 99.9812 105.182 98.9733 106.064 97.9696C106.163 94.9806 106.407 92.0477 106.788 89.2008C103.049 92.6425 99.8961 96.2688 97.4701 99.9202C92.5216 107.368 89.6129 116.603 94.0765 124.334C97.8644 130.895 105.244 133.399 112.846 133.664L112.826 133.623C111.925 131.808 111.105 129.874 110.371 127.839C105.081 127.186 101.016 125.096 98.9511 121.52C96.5431 117.349 97.246 111.833 100.377 105.998L100.388 106.011C101.274 104.358 102.355 102.68 103.615 101L103.606 100.988Z"
          fill="#3D4A55" />
    <ellipse cx="219" cy="125.667" rx="5.33333" ry="5.33334" fill="#FFBA55" />
    <ellipse cx="157.666" cy="174.333" rx="5.33334" ry="5.33332" fill="#FFBA55" />
    <ellipse cx="215.666" cy="183.667" rx="5.33333" ry="5.33334" fill="#E8E8E8" />
    <ellipse cx="249.666" cy="31.6673" rx="5.33333" ry="5.33333" fill="#E8E8E8" />
    <ellipse cx="208.333" cy="66.3333" rx="5.33334" ry="5.33333" fill="#FFBA55" />
  </g>
  <path
    d="M9 2H259.667V0H9V2ZM266.667 9V193H268.667V9H266.667ZM259.667 200H8.99999V202H259.667V200ZM2 193V9H0V193H2ZM8.99999 200C5.134 200 2 196.866 2 193H0C0 197.971 4.02943 202 8.99999 202V200ZM266.667 193C266.667 196.866 263.533 200 259.667 200V202C264.637 202 268.667 197.971 268.667 193H266.667ZM259.667 2C263.533 2 266.667 5.13401 266.667 9H268.667C268.667 4.02944 264.637 0 259.667 0V2ZM9 0C4.02944 0 0 4.02944 0 9H2C2 5.13401 5.13401 2 9 2V0Z"
    fill="#BCBEBE" />
  <defs>
    <filter id="filter0_i_8607_22596" x="17" y="14.334" width="8" height="8" filterUnits="userSpaceOnUse"
            color-interpolation-filters="sRGB">
      <feFlood flood-opacity="0" result="BackgroundImageFix" />
      <feBlend mode="normal" in="SourceGraphic" in2="BackgroundImageFix" result="shape" />
      <feColorMatrix in="SourceAlpha" type="matrix" values="0 0 0 0 0 0 0 0 0 0 0 0 0 0 0 0 0 0 127 0"
                     result="hardAlpha" />
      <feOffset />
      <feGaussianBlur stdDeviation="3" />
      <feComposite in2="hardAlpha" operator="arithmetic" k2="-1" k3="1" />
      <feColorMatrix type="matrix" values="0 0 0 0 0.92549 0 0 0 0 0.427451 0 0 0 0 0.384314 0 0 0 1 0" />
      <feBlend mode="normal" in2="shape" result="effect1_innerShadow_8607_22596" />
    </filter>
    <filter id="filter1_i_8607_22596" x="30.333" y="14.334" width="8" height="8" filterUnits="userSpaceOnUse"
            color-interpolation-filters="sRGB">
      <feFlood flood-opacity="0" result="BackgroundImageFix" />
      <feBlend mode="normal" in="SourceGraphic" in2="BackgroundImageFix" result="shape" />
      <feColorMatrix in="SourceAlpha" type="matrix" values="0 0 0 0 0 0 0 0 0 0 0 0 0 0 0 0 0 0 127 0"
                     result="hardAlpha" />
      <feOffset />
      <feGaussianBlur stdDeviation="3" />
      <feComposite in2="hardAlpha" operator="arithmetic" k2="-1" k3="1" />
      <feColorMatrix type="matrix" values="0 0 0 0 0.960784 0 0 0 0 0.768627 0 0 0 0 0.317647 0 0 0 1 0" />
      <feBlend mode="normal" in2="shape" result="effect1_innerShadow_8607_22596" />
    </filter>
    <filter id="filter2_i_8607_22596" x="43.667" y="14.334" width="8" height="8" filterUnits="userSpaceOnUse"
            color-interpolation-filters="sRGB">
      <feFlood flood-opacity="0" result="BackgroundImageFix" />
      <feBlend mode="normal" in="SourceGraphic" in2="BackgroundImageFix" result="shape" />
      <feColorMatrix in="SourceAlpha" type="matrix" values="0 0 0 0 0 0 0 0 0 0 0 0 0 0 0 0 0 0 127 0"
                     result="hardAlpha" />
      <feOffset />
      <feGaussianBlur stdDeviation="3" />
      <feComposite in2="hardAlpha" operator="arithmetic" k2="-1" k3="1" />
      <feColorMatrix type="matrix" values="0 0 0 0 0.407843 0 0 0 0 0.8 0 0 0 0 0.345098 0 0 0 1 0" />
      <feBlend mode="normal" in2="shape" result="effect1_innerShadow_8607_22596" />
    </filter>
    <clipPath id="clip0_8607_22596">
      <path
        d="M1 9C1 4.58173 4.58172 1 9 1H259.667C264.085 1 267.667 4.58172 267.667 9V193C267.667 197.418 264.085 201 259.667 201H8.99999C4.58171 201 1 197.418 1 193V9Z"
        fill="white" />
    </clipPath>
  </defs>
</svg>
