<svg width="218" height="238" viewBox="0 0 218 238" fill="none" xmlns="http://www.w3.org/2000/svg">
  <g opacity="0.05">
    <path
      d="M327.98 166.577C328.014 166.508 328.049 166.438 328.083 166.369C332.68 157.112 336.863 147.248 340.607 136.869C367.595 133.541 388.337 122.882 398.872 104.641C409.408 86.4013 408.272 63.116 397.66 38.0886C404.781 29.658 411.236 21.1049 416.957 12.4971L417.085 12.3039C435.308 46.5528 443.069 85.5343 423.743 118.995C404.417 152.455 366.763 165.227 327.98 166.577Z"
      fill="#96999A" />
    <path
      d="M313.761 166.577C314.791 164.648 315.791 162.705 316.761 160.751C320.345 153.533 323.675 145.906 326.732 137.919C317.17 138.22 306.997 137.726 296.357 136.444C292.146 146.296 287.488 155.35 282.446 163.477C290.895 164.824 299.167 165.755 307.213 166.261C309.391 166.398 311.574 166.504 313.761 166.577Z"
      fill="#96999A" />
    <path
      d="M121.331 166.58C123.487 166.506 125.64 166.402 127.787 166.266C135.833 165.76 144.105 164.829 152.554 163.482C147.512 155.355 142.854 146.301 138.644 136.45C128.038 137.727 117.897 138.222 108.361 137.927C111.418 145.912 114.746 153.536 118.33 160.751C119.3 162.705 120.3 164.649 121.331 166.58Z"
      fill="#96999A" />
    <path
      d="M90.9511 73.0542C101.869 82.117 113.585 90.8559 125.992 99.1484C122.498 86.0932 119.672 72.2051 117.608 57.6703C106.047 48.6154 95.4279 39.2254 85.8642 29.673C86.8453 44.5594 88.5585 59.0712 90.9511 73.0542Z"
      fill="#96999A" />
    <path
      d="M85.8702 -29.7749C86.8542 -44.6583 88.57 -59.1668 90.965 -73.1465C101.854 -82.1782 113.535 -90.8879 125.902 -99.154C122.408 -86.0988 119.582 -72.2107 117.517 -57.6758C105.996 -48.6514 95.4089 -39.2941 85.8702 -29.7749Z"
      fill="#96999A" />
    <path
      d="M108.358 -137.93C111.416 -145.917 114.745 -153.544 118.33 -160.762C119.3 -162.715 120.3 -164.659 121.33 -166.588C123.516 -166.515 125.7 -166.409 127.877 -166.272C135.923 -165.766 144.195 -164.835 152.644 -163.488C147.602 -155.361 142.944 -146.307 138.734 -136.455C128.094 -137.736 117.921 -138.231 108.358 -137.93Z"
      fill="#96999A" />
    <path
      d="M132.154 -68.5978C134.753 -83.1534 138.148 -96.8776 142.213 -109.553C145.152 -111.339 148.125 -113.1 151.129 -114.834C190.501 -137.556 231.161 -153.227 268.928 -161.024C272.629 -155.47 276.208 -149.256 279.625 -142.375C280.886 -139.836 282.115 -137.223 283.31 -134.54C274.971 -133.093 266.397 -131.195 257.648 -128.85L257.673 -128.837C244.615 -125.335 231.17 -120.837 217.545 -115.357L217.506 -115.372C200.315 -108.461 182.837 -99.9857 165.488 -89.9733C153.775 -83.2138 142.64 -76.053 132.154 -68.5978Z"
      fill="#96999A" />
    <path
      d="M132.142 68.5193C134.738 83.0764 138.13 96.8025 142.193 109.48C145.169 111.29 148.178 113.073 151.219 114.828C154.261 116.583 157.31 118.297 160.365 119.968C173.381 117.146 186.969 113.219 200.879 108.188C189.139 102.825 177.329 96.7491 165.578 89.9676C153.828 83.1861 142.658 76.0007 132.142 68.5193Z"
      fill="#96999A" />
    <path
      d="M269.019 161.018C272.72 155.464 276.298 149.251 279.716 142.37C280.977 139.83 282.206 137.217 283.4 134.535C281.174 134.148 278.931 133.73 276.672 133.279C263.213 140.465 249.63 146.865 236.078 152.439C247.229 155.927 258.242 158.793 269.019 161.018Z"
      fill="#96999A" />
    <path
      d="M309.116 99.081C312.608 86.0232 315.431 72.133 317.493 57.5962C329.015 48.5658 339.6 39.2026 349.136 29.678C348.155 44.5645 346.442 59.0763 344.049 73.0594C333.162 82.0957 321.483 90.8101 309.116 99.081Z"
      fill="#96999A" />
    <path
      d="M317.483 -57.681C315.418 -72.2159 312.592 -86.1039 309.098 -99.1591C321.505 -90.8666 333.221 -82.1277 344.139 -73.065C346.532 -59.0819 348.245 -44.5701 349.226 -29.6837C339.663 -39.2361 329.043 -48.6261 317.483 -57.681Z"
      fill="#96999A" />
    <path
      d="M358.898 60.0846C360.842 45.561 362.085 30.599 362.586 15.3509C401.002 -28.4236 416.618 -73.766 398.782 -104.647C388.259 -122.865 367.554 -133.521 340.613 -136.862C336.868 -147.248 332.682 -157.118 328.083 -166.38C328.05 -166.446 328.017 -166.513 327.984 -166.579C366.734 -165.212 404.342 -152.433 423.652 -119C445.322 -81.4818 432.936 -37.0217 409.933 -0.0753479L409.977 -0.00535583C408.82 1.85097 407.636 3.68831 406.429 5.50479C401.967 12.2168 397.025 18.9122 391.633 25.5529L391.599 25.4889C382.046 37.2632 371.084 48.8659 358.898 60.0846Z"
      fill="#96999A" />
    <path
      d="M107.111 -166.588C68.3272 -165.238 30.6737 -152.466 11.3476 -119.005C-7.97862 -85.545 -0.217127 -46.5636 18.0051 -12.3146L18.1334 -12.5078C23.8548 -21.1156 30.3091 -29.6687 37.43 -38.0992C26.8187 -63.1267 25.6829 -86.4121 36.2181 -104.652C46.7533 -122.892 67.4951 -133.552 94.484 -136.88C98.2276 -147.259 102.411 -157.123 107.008 -166.38C107.042 -166.449 107.076 -166.518 107.111 -166.588Z"
      fill="#96999A" />
    <path
      d="M358.886 -60.1844C367.484 -52.2753 375.473 -44.1748 382.789 -35.9577C379.828 -29.9773 376.234 -23.7723 371.981 -17.3736C370.411 -15.0122 368.762 -12.6421 367.035 -10.2665C365.587 -12.0006 364.103 -13.7332 362.583 -15.4634C362.079 -30.7075 360.832 -45.6652 358.886 -60.1844Z"
      fill="#96999A" />
    <path
      d="M292.897 -109.491C296.96 -96.8132 300.352 -83.0871 302.948 -68.53C292.432 -76.0115 281.263 -83.1969 269.512 -89.9784C257.762 -96.7599 245.952 -102.836 234.212 -108.199C248.122 -113.23 261.71 -117.157 274.725 -119.978C277.78 -118.308 280.83 -116.594 283.871 -114.839C286.913 -113.083 289.922 -111.3 292.897 -109.491Z"
      fill="#96999A" />
    <path
      d="M166.072 -161.029C176.849 -158.804 187.862 -155.938 199.013 -152.45C185.46 -146.875 171.878 -140.476 158.419 -133.29C156.16 -133.74 153.917 -134.159 151.69 -134.545C152.885 -137.228 154.114 -139.841 155.375 -142.38C158.792 -149.262 162.371 -155.475 166.072 -161.029Z"
      fill="#96999A" />
    <path
      d="M296.354 -136.461C306.963 -137.734 317.106 -138.225 326.642 -137.925C323.584 -145.912 320.255 -153.539 316.67 -160.757C315.7 -162.71 314.7 -164.654 313.67 -166.583C311.484 -166.51 309.3 -166.404 307.123 -166.267C299.104 -165.763 290.86 -164.836 282.441 -163.497C287.484 -155.368 292.143 -146.314 296.354 -136.461Z"
      fill="#96999A" />
    <path
      d="M166.064 161.006C162.366 155.456 158.79 149.246 155.375 142.37C154.112 139.827 152.882 137.211 151.686 134.525C188.154 128.182 229.136 113.222 269.422 89.9728C281.172 83.1913 292.342 76.0059 302.858 68.5244C300.262 83.0815 296.87 96.8076 292.807 109.485C289.832 111.295 286.822 113.078 283.781 114.833C275.109 119.838 266.374 124.501 257.621 128.813L257.673 128.827C244.285 135.421 230.856 141.193 217.545 146.114L217.507 146.1C200.035 152.561 182.767 157.553 166.064 161.006Z"
      fill="#96999A" />
    <path
      d="M72.5077 15.4527C73.0116 30.6967 74.2581 45.6545 76.2044 60.1737C67.6069 52.2646 59.6175 44.1641 52.3014 35.9469C55.2627 29.9666 58.8566 23.7616 63.1097 17.3629C64.6793 15.0014 66.3285 12.6314 68.0555 10.2558C69.5035 11.9899 70.9878 13.7225 72.5077 15.4527Z"
      fill="#96999A" />
    <path
      d="M59.8794 -0.0630951C63.7357 -5.19936 67.9207 -10.3396 72.4173 -15.4583C72.9212 -30.7024 74.1677 -45.6601 76.1139 -60.1793C57.0338 -42.6268 40.9489 -24.1324 28.5712 -5.51039C3.32371 32.4741 -11.5167 79.5703 11.2571 119C30.5833 152.46 68.2367 165.232 107.02 166.582L106.917 166.374C102.32 157.117 98.1371 147.254 94.3936 136.874C67.4047 133.546 46.6629 122.887 36.1276 104.647C23.8418 83.3755 27.428 55.243 43.4043 25.4878L43.4571 25.5529C47.9775 17.1243 53.4924 8.5652 59.9227 -0.00535583L59.8794 -0.0630951Z"
      fill="#96999A" />
    <path fill-rule="evenodd" clip-rule="evenodd"
          d="M316.67 160.757C296.385 201.605 263.003 238 217.455 238C171.907 238 138.524 201.605 118.239 160.757C97.0718 118.132 84.8028 61.2564 84.8028 1.52588e-05C84.8028 -61.2564 97.0718 -118.131 118.239 -160.757C138.524 -201.605 171.907 -238 217.455 -238C263.003 -238 296.385 -201.605 316.67 -160.757C337.838 -118.132 350.107 -61.2564 350.107 1.52588e-05C350.107 61.2564 337.838 118.132 316.67 160.757ZM217.455 209.294C274.856 209.294 321.389 115.59 321.389 1.52588e-05C321.389 -115.59 274.856 -209.294 217.455 -209.294C160.054 -209.294 113.521 -115.59 113.521 1.52588e-05C113.521 115.59 160.054 209.294 217.455 209.294Z"
          fill="#96999A" />
  </g>
</svg>
