<svg width="71" height="86" viewBox="0 0 71 86" fill="none" xmlns="http://www.w3.org/2000/svg">
  <g opacity="0.05">
    <path
      d="M29.9757 58.9912C29.9887 58.965 30.0017 58.9389 30.0147 58.9127C31.7523 55.4122 33.3335 51.6822 34.7486 47.7571C44.9503 46.4987 52.7906 42.4678 56.7729 35.5703C60.7552 28.6728 60.3259 19.8674 56.3148 10.4032C59.0065 7.21522 61.4462 3.98086 63.6089 0.725784L63.6574 0.652733C70.5454 13.604 73.4792 28.3449 66.1739 40.998C58.8687 53.651 44.6358 58.4807 29.9757 58.9912Z"
      fill="white" />
    <path
      d="M24.601 58.9915C24.9903 58.2618 25.3683 57.5269 25.735 56.7883C27.0899 54.0587 28.3483 51.1747 29.5042 48.1543C25.8896 48.2681 22.0443 48.0811 18.0222 47.5966C16.4307 51.3221 14.67 54.7457 12.7641 57.8191C15.9578 58.3284 19.0847 58.6805 22.1259 58.8719C22.949 58.9237 23.7744 58.9638 24.601 58.9915Z"
      fill="white" />
    <path
      d="M-48.1372 58.9922C-47.3222 58.9646 -46.5084 58.9249 -45.6968 58.8739C-42.6555 58.6825 -39.5287 58.3304 -36.335 57.8211C-38.2409 54.7477 -40.0016 51.324 -41.593 47.5986C-45.602 48.0815 -49.4353 48.2689 -53.0397 48.1573C-51.8842 51.1767 -50.6261 54.0597 -49.2716 56.7883C-48.9048 57.5272 -48.5267 58.2623 -48.1372 58.9922Z"
      fill="white" />
    <path
      d="M-59.6207 23.6255C-55.4936 27.0526 -51.0649 30.3573 -46.3752 33.4931C-47.696 28.5562 -48.7641 23.3045 -49.5445 17.8081C-53.9143 14.384 -57.9284 10.8331 -61.5435 7.22086C-61.1726 12.8502 -60.5251 18.3378 -59.6207 23.6255Z"
      fill="white" />
    <path
      d="M-61.5412 -15.2594C-61.1693 -20.8876 -60.5207 -26.374 -59.6154 -31.6604C-55.4995 -35.0758 -51.0842 -38.3694 -46.4094 -41.4952C-47.7302 -36.5584 -48.7983 -31.3066 -49.5787 -25.8102C-53.9338 -22.3976 -57.9356 -18.8591 -61.5412 -15.2594Z"
      fill="white" />
    <path
      d="M-53.0408 -56.1584C-51.885 -59.1788 -50.6265 -62.0628 -49.2716 -64.7923C-48.9049 -65.531 -48.5269 -66.2659 -48.1377 -66.9956C-47.3111 -66.9679 -46.4857 -66.9278 -45.6626 -66.876C-42.6214 -66.6846 -39.4945 -66.3325 -36.3008 -65.8232C-38.2067 -62.7498 -39.9674 -59.3262 -41.5588 -55.6007C-45.5809 -56.0852 -49.4262 -56.2722 -53.0408 -56.1584Z"
      fill="white" />
    <path
      d="M-44.0459 -29.9403C-43.0637 -35.4446 -41.7805 -40.6344 -40.2437 -45.4276C-39.1327 -46.1031 -38.0092 -46.7689 -36.8736 -47.4245C-21.9909 -56.017 -6.62163 -61.9431 7.65443 -64.8913C9.05325 -62.7912 10.4061 -60.4415 11.6977 -57.8394C12.1744 -56.8791 12.6389 -55.8911 13.0905 -54.8766C9.93864 -54.3292 6.69743 -53.6115 3.39046 -52.7247L3.39996 -52.72C-1.53587 -51.3954 -6.61806 -49.6945 -11.7683 -47.6222L-11.783 -47.6281C-18.2813 -45.0146 -24.888 -41.8097 -31.446 -38.0235C-35.8732 -35.4674 -40.0822 -32.7596 -44.0459 -29.9403Z"
      fill="white" />
    <path
      d="M-44.0505 21.9106C-43.0692 27.4154 -41.7871 32.606 -40.2512 37.4001C-39.1266 38.0843 -37.9892 38.7586 -36.8395 39.4224C-35.6897 40.0862 -34.537 40.7341 -33.3822 41.3659C-28.4624 40.299 -23.3262 38.8141 -18.0683 36.9115C-22.5059 34.8835 -26.97 32.5858 -31.4118 30.0214C-35.8535 27.4569 -40.0754 24.7398 -44.0505 21.9106Z"
      fill="white" />
    <path
      d="M7.68861 56.8892C9.08744 54.7891 10.4403 52.4394 11.7319 49.8372C12.2086 48.8769 12.6731 47.8889 13.1247 46.8744C12.2831 46.7283 11.4352 46.57 10.5813 46.3996C5.49381 49.1169 0.359749 51.537 -4.76299 53.6451C-0.547905 54.9641 3.61486 56.0479 7.68861 56.8892Z"
      fill="white" />
    <path
      d="M22.8454 33.4676C24.1652 28.5298 25.2324 23.2772 26.0118 17.7801C30.3668 14.3652 34.3681 10.8245 37.9726 7.22279C37.6018 12.8521 36.9542 18.3398 36.0498 23.6275C31.9347 27.0446 27.5199 30.3399 22.8454 33.4676Z"
      fill="white" />
    <path
      d="M26.0079 -25.8121C25.2274 -31.3085 24.1593 -36.5603 22.8386 -41.4972C27.5282 -38.3613 31.9569 -35.0567 36.084 -31.6296C36.9884 -26.3419 37.636 -20.8542 38.0068 -15.2249C34.3918 -18.8372 30.3776 -22.388 26.0079 -25.8121Z"
      fill="white" />
    <path
      d="M41.6627 18.7211C42.3975 13.2289 42.8676 7.57104 43.0568 1.80495C57.5778 -14.7484 63.4809 -31.8947 56.7387 -43.5724C52.7612 -50.4617 44.9348 -54.4912 34.7509 -55.7547C33.3353 -59.6822 31.7533 -63.4144 30.0147 -66.9168C30.0022 -66.9419 29.9898 -66.967 29.9773 -66.9921C44.6248 -66.475 58.8405 -61.6429 66.1398 -49.0001C74.331 -34.8124 69.6489 -17.9998 60.9538 -4.0285L60.9703 -4.00203C60.533 -3.30006 60.0856 -2.60526 59.6293 -1.91836C57.9429 0.619781 56.0745 3.15165 54.0366 5.66283L54.0236 5.63864C50.4127 10.0911 46.269 14.4787 41.6627 18.7211Z"
      fill="white" />
    <path
      d="M-53.5124 -66.9953C-68.1725 -66.4848 -82.4054 -61.6551 -89.7106 -49.0021C-97.0159 -36.349 -94.0821 -21.6081 -87.1941 -8.6568L-87.1456 -8.72984C-84.9829 -11.9849 -82.5432 -15.2192 -79.8515 -18.4073C-83.8626 -27.8715 -84.2919 -36.6768 -80.3096 -43.5744C-76.3274 -50.4719 -68.487 -54.5028 -58.2852 -55.7612C-56.8702 -59.6863 -55.289 -63.4163 -53.5514 -66.9168C-53.5384 -66.9429 -53.5254 -66.9691 -53.5124 -66.9953Z"
      fill="white" />
    <path
      d="M41.6582 -26.7588C44.9081 -23.768 47.928 -20.7048 50.6935 -17.5974C49.5741 -15.3359 48.2156 -12.9895 46.608 -10.5699C46.0147 -9.67687 45.3913 -8.78062 44.7385 -7.88229C44.1911 -8.53804 43.6301 -9.19324 43.0556 -9.8475C42.8651 -15.6121 42.3939 -21.2683 41.6582 -26.7588Z"
      fill="white" />
    <path
      d="M16.7145 -45.4042C18.2504 -40.61 19.5326 -35.4195 20.5138 -29.9147C16.5388 -32.7438 12.3168 -35.461 7.87507 -38.0255C3.43336 -40.5899 -1.03075 -42.8876 -5.46839 -44.9156C-0.210464 -46.8181 4.92578 -48.303 9.84555 -49.37C11.0004 -48.7382 12.153 -48.0903 13.3027 -47.4265C14.4525 -46.7627 15.5899 -46.0884 16.7145 -45.4042Z"
      fill="white" />
    <path
      d="M-31.2253 -64.8933C-27.1515 -64.052 -22.9887 -62.9682 -18.7736 -61.6492C-23.8964 -59.5411 -29.0304 -57.121 -34.1179 -54.4037C-34.9718 -54.5741 -35.8198 -54.7324 -36.6614 -54.8785C-36.2098 -55.893 -35.7453 -56.881 -35.2686 -57.8413C-33.9769 -60.4434 -32.6241 -62.7931 -31.2253 -64.8933Z"
      fill="white" />
    <path
      d="M18.0213 -55.6027C22.0313 -56.0843 25.8654 -56.27 29.47 -56.1564C28.3141 -59.1768 27.0557 -62.0609 25.7008 -64.7904C25.3341 -65.5291 24.9561 -66.2639 24.5668 -66.9936C23.7402 -66.9659 22.9148 -66.9258 22.0918 -66.8741C19.0607 -66.6833 15.9446 -66.3329 12.7621 -65.8264C14.6685 -62.7528 16.4295 -59.3287 18.0213 -55.6027Z"
      fill="white" />
    <path
      d="M-31.2283 56.8847C-32.626 54.7857 -33.9779 52.4375 -35.2686 49.8372C-35.7459 48.8758 -36.2109 47.8865 -36.663 46.8707C-22.8783 44.4723 -7.38703 38.8152 7.84089 30.0233C12.2826 27.4589 16.5046 24.7417 20.4797 21.9126C19.4984 27.4174 18.2162 32.6079 16.6803 37.4021C15.5557 38.0862 14.4183 38.7605 13.2686 39.4243C9.99048 41.3169 6.6888 43.0802 3.38039 44.7107L3.39996 44.716C-1.66059 47.2095 -6.73682 49.3925 -11.7683 51.2531L-11.7828 51.2477C-18.3871 53.6911 -24.9145 55.579 -31.2283 56.8847Z"
      fill="white" />
    <path
      d="M-66.5922 1.84343C-66.4018 7.60801 -65.9306 13.2643 -65.1949 18.7548C-68.4447 15.7639 -71.4647 12.7007 -74.2302 9.59338C-73.1108 7.33189 -71.7523 4.98546 -70.1447 2.56579C-69.5514 1.67281 -68.928 0.776566 -68.2752 -0.12178C-67.7278 0.533981 -67.1667 1.18917 -66.5922 1.84343Z"
      fill="white" />
    <path
      d="M-71.3657 -4.02386C-69.908 -5.96614 -68.3261 -7.90995 -66.6264 -9.84557C-66.4359 -15.6101 -65.9648 -21.2664 -65.2291 -26.7569C-72.4413 -20.1194 -78.5214 -13.1257 -83.2001 -6.08376C-92.7436 8.2801 -98.3533 26.0896 -89.7448 40.9999C-82.4396 53.653 -68.2067 58.4827 -53.5465 58.9931L-53.5856 58.9146C-55.3232 55.4141 -56.9044 51.6841 -58.3194 47.7591C-68.5212 46.5006 -76.3615 42.4698 -80.3438 35.5722C-84.9879 27.5285 -83.6323 16.8902 -77.5932 5.63824L-77.5733 5.66283C-75.8646 2.47558 -73.78 -0.761063 -71.3493 -4.00203L-71.3657 -4.02386Z"
      fill="white" />
    <path fill-rule="evenodd" clip-rule="evenodd"
          d="M25.7008 56.7903C18.0331 72.2372 5.41441 86 -11.8025 86C-29.0195 86 -41.6381 72.2372 -49.3058 56.7903C-57.3071 40.6716 -61.9447 19.1642 -61.9447 -4C-61.9447 -27.1642 -57.3071 -48.6716 -49.3058 -64.7903C-41.6381 -80.2372 -29.0195 -94 -11.8025 -94C5.41441 -94 18.0331 -80.2373 25.7008 -64.7904C33.702 -48.6717 38.3397 -27.1642 38.3397 -4C38.3397 19.1642 33.702 40.6716 25.7008 56.7903ZM-11.8025 75.1447C9.89499 75.1447 27.4843 39.7104 27.4843 -4C27.4843 -47.7104 9.89499 -83.1447 -11.8025 -83.1447C-33.5001 -83.1447 -51.0894 -47.7104 -51.0894 -4C-51.0894 39.7104 -33.5001 75.1447 -11.8025 75.1447Z"
          fill="white" />
  </g>
</svg>
